Project Version="3.0.2" TempoMode="FamiStudio" Name="Yuushayo Isoge!!" Author="Kouichi Sugiyama"
	DPCMSample Name="BassDrum" Data="aaaaaaaaaaaff0ae9ee886aa7a1b98b20203040c415605c054555555550f1ffff5f3cfd5efdeb8eaa6a22a398143908619023455958615398ca6554d16cca34555d5ca56325375d65316d354d74b374b5b5555cdb55b5d59b6d555d5b5d76badaaaeb6d6b5b5aa565555555555a994a4a94a4a8aaa54a549294a54a52955a54aa554a954aa952aaa94952a555555555666aa9aaa5555adab5ab56b6b6b5a5555b556aad55556aaaaaaaaaaaaaa955555b556aad55556aaaaaaaaaaaaaa955555"
	DPCMSample Name="Snare" Data="fefedefde3678c544031370982186002c024575aa5d63cefb756ef9fabff5e9f96c92441490909290240044018749bb776ebcf75dfbdf3e7c67385e268311c318a6ac08f060a65c638d4c5c72d1d53a754f563cfb8f1b1abe9dc7633ee30e2d088388401450e070c1d1e7d9e5fe7ef3b7f5f955c5319730c23188a5311060d65053c3324e77caed5e71ff8f0b3cf71ae1c8ecf08ce0caa2a31c240654d192cd191ed570fcfa73cbf93c7ccf53839b81947a84ad6047631851c545355655995d554f77827c7af646b390faaea862f91aab2a629e1c4198c415547a6568a6753cd9e1f9e71f3aab718fa63c318a3b2e0e38e08e0718c518f1953353555d5bc7476e2f3cb9699aa633987a6370f89cab22a88e0a9838b1947555595ed0ddaf473ee2cab8e761a398eb2caaa32c39c590ba1c0f1199c54cd2e2d6e3ce339e38eb8e72ce3a68daaa694ab25c239e62636198c7498cd473859d4d353b8f26eacb3b4e5b2a6aa8cab2a3c8a738e1c6b298e1c2c68d931e3554739ab2d9738d3b1ce38f1d4b3aaaa62ad54b238c9a8aca918e6519a73299e399ad5a796d365ad58ba62da4aaa3c52b1a566638d31e0e5952accb29cacab3966a74b995a6accab8b55a6a6aa3c5a3938e2a4b930b954aa95aa655a9cc759b2ae6b34dcb2d4b1d463c5346a6569654ce3354c71a554d6334d7192ea9aab56555aca6ace333a3c6556398d62c66a3349a95561acad2aaad58d6aacd55ad3953ac8e69594ad4b165a62e34ccb2ab32aaa96a65a9aaaaaacd3555555a6a6aaaab4cb2cd2cacaaa96955552caaa96665555aa96ab2cad5965a6aaacb334cb4caacaaaa5a6565554d32ac6aa6a96a666aaaab2b4d555669aaaaaaaaaaaaaaaaaaaaa9aa6565552b2aaaaaa96aa65aaaaaab555566a6aaaaaaa6a729aaa9a9aa9965955555552d2b2aaa9aaaaaaacb2ccd55555659659aaaa9a9a9aaa6a56a5659555555554b532aaaab2aab2aaab555555555569aaaa969a995a595a55659659555555555552b4aaaaaaaab2d35555555555565566aaaaaaaaa69aaa6555aaaaaaaaaaaaaaaaaaaaaaaaaaaaaa2a"
	DPCMMapping Note="C2" Sample="BassDrum" Pitch="15" Loop="False"
	DPCMMapping Note="D2" Sample="Snare" Pitch="15" Loop="False"
	Instrument Name="Base"
	Instrument Name="Chorus 1"
		Envelope Type="Volume" Length="41" Loop="18" Release="26" Values="3,6,8,9,8,7,6,5,5,5,5,5,5,5,5,5,5,5,5,5,4,4,3,3,4,4,3,3,3,3,3,3,2,2,2,2,1,1,1,1,0"
		Envelope Type="DutyCycle" Length="1" Values="1"
	Instrument Name="Chorus 2"
		Envelope Type="Volume" Length="41" Loop="18" Release="26" Values="2,5,7,8,7,6,5,4,4,4,4,4,4,4,4,4,4,4,4,4,3,3,2,2,3,3,2,2,2,2,2,2,1,1,1,1,1,1,1,1,0"
		Envelope Type="DutyCycle" Length="1" Values="2"
	Instrument Name="Horn"
		Envelope Type="Volume" Length="14" Loop="6" Release="12" Values="3,5,8,9,10,9,7,7,6,5,5,6,5,3"
		Envelope Type="DutyCycle" Length="1" Values="2"
	Instrument Name="Intro"
		Envelope Type="Volume" Length="18" Loop="9" Release="17" Values="6,9,11,13,14,14,13,12,12,11,11,10,9,8,8,9,10,2"
	Instrument Name="Strings"
		Envelope Type="Volume" Length="30" Loop="9" Release="13" Values="3,3,4,4,5,5,6,6,7,7,7,6,6,7,6,6,5,5,4,4,3,3,2,2,1,1,1,1,1,0"
		Envelope Type="Pitch" Length="1" Values="-1"
	Instrument Name="Trumpet"
		Envelope Type="Volume" Length="25" Loop="9" Release="13" Values="1,3,4,5,6,6,8,9,9,9,9,8,8,9,8,8,7,7,6,5,4,3,2,1,0"
		Envelope Type="DutyCycle" Length="1" Values="1"
	Instrument Name="Vocal 1"
		Envelope Type="Volume" Length="41" Loop="18" Release="26" Values="4,7,10,11,10,9,8,8,8,8,8,8,8,8,8,8,8,8,8,8,7,7,6,6,7,7,6,6,6,6,5,5,5,4,4,3,3,2,2,1,0"
		Envelope Type="DutyCycle" Length="1" Values="1"
	Instrument Name="Vocal 2"
		Envelope Type="Volume" Length="41" Loop="18" Release="26" Values="4,7,10,11,10,9,8,8,8,8,8,8,8,8,8,8,8,8,8,8,7,7,6,6,7,7,6,6,6,6,5,5,5,4,4,3,3,2,2,1,0"
		Envelope Type="DutyCycle" Length="1" Values="2"
	Song Name="Yuushayo Isoge!!" Length="58" LoopPoint="-1" PatternLength="16" BeatLength="4" NoteLength="6" Groove="7-6-6" GroovePaddingMode="Middle"
		PatternCustomSettings Time="0" Length="12" NoteLength="7" Groove="8-7-7" GroovePaddingMode="Middle" BeatLength="6"
		PatternCustomSettings Time="1" Length="12" NoteLength="7" Groove="8-7-7" GroovePaddingMode="Middle" BeatLength="6"
		PatternCustomSettings Time="2" Length="12" NoteLength="7" Groove="8-7-7" GroovePaddingMode="Middle" BeatLength="6"
		PatternCustomSettings Time="3" Length="6" NoteLength="7" Groove="8-7-7" GroovePaddingMode="Middle" BeatLength="6"
		PatternCustomSettings Time="4" Length="6" NoteLength="7" Groove="8-7-7" GroovePaddingMode="Middle" BeatLength="6"
		PatternCustomSettings Time="5" Length="6" NoteLength="8" Groove="9-8" GroovePaddingMode="Middle" BeatLength="6"
		PatternCustomSettings Time="6" Length="6" NoteLength="11" Groove="11" GroovePaddingMode="Middle" BeatLength="6"
		PatternCustomSettings Time="7" Length="12" NoteLength="9" Groove="9" GroovePaddingMode="Middle" BeatLength="6"
		Channel Type="Square1"
			Pattern Name="Intro 1"
				Note Time="0" Value="E3" Duration="21" Release="14" Instrument="Intro"
				Note Time="21" Value="E3" Duration="7" Instrument="Intro"
				Note Time="28" Value="E3" Duration="14" Release="7" Instrument="Intro"
				Note Time="42" Value="D3" Duration="14" Release="7" Instrument="Intro"
				Note Time="56" Value="D3" Duration="14" Release="7" Instrument="Intro"
				Note Time="70" Value="D3" Duration="14" Release="7" Instrument="Intro"
			Pattern Name="Intro 2"
				Note Time="0" Value="C3" Duration="14" Release="7" Instrument="Intro"
				Note Time="14" Value="D3" Duration="14" Release="7" Instrument="Intro"
				Note Time="28" Value="E3" Duration="14" Release="7" Instrument="Intro"
				Note Time="42" Value="F3" Duration="14" Release="7" Instrument="Intro"
				Note Time="56" Value="E3" Duration="14" Release="7" Instrument="Intro"
				Note Time="70" Value="D3" Duration="14" Release="7" Instrument="Intro"
			Pattern Name="Intro 3"
				Note Time="0" Value="E3" Duration="14" Release="7" Instrument="Intro"
				Note Time="14" Value="F3" Duration="14" Release="7" Instrument="Intro"
				Note Time="28" Value="G3" Duration="14" Release="7" Instrument="Intro"
				Note Time="42" Value="A3" Duration="14" Release="7" Instrument="Intro"
				Note Time="56" Value="C4" Duration="14" Release="7" Instrument="Intro"
				Note Time="70" Value="A3" Duration="14" Release="7" Instrument="Intro"
			Pattern Name="Intro 4"
				Note Time="0" Value="G3" Duration="14" Release="7" Instrument="Intro"
				Note Time="14" Value="F3" Duration="14" Release="7" Instrument="Intro"
				Note Time="28" Value="E3" Duration="14" Release="7" Instrument="Intro"
			Pattern Name="Intro 5"
				Note Time="0" Value="D3" Duration="21" Release="14" Instrument="Intro"
				Note Time="21" Value="D3" Duration="7" Instrument="Intro"
				Note Time="28" Value="D3" Duration="14" Release="7" Instrument="Intro"
			Pattern Name="Intro 6"
				Note Time="0" Value="E3" Duration="24" Release="16" Instrument="Intro"
				Note Time="24" Value="E3" Duration="8" Instrument="Intro"
				Note Time="32" Value="E3" Duration="16" Release="8" Instrument="Intro"
			Pattern Name="Intro 7"
				Note Time="0" Value="E3" Duration="22" Release="11" Instrument="Intro"
				Note Time="22" Value="C3" Duration="22" Release="11" Instrument="Intro"
				Note Time="44" Value="E3" Duration="22" Release="11" Instrument="Intro"
			Pattern Name="Intro 8"
				Note Time="0" Value="D3" Duration="180" Release="108" Instrument="Intro"
			Pattern Name="Intro 9"
				Note Time="72" Value="C3" Duration="12" Instrument="Vocal 1"
				Note Time="84" Value="C3" Duration="12" Instrument="Vocal 1"
			Pattern Name="Verse 1"
				Note Time="0" Value="G3" Duration="168" Release="156" Instrument="Vocal 1"
			Pattern Name="Verse 2"
				Note Time="72" Value="A#3" Duration="24" Instrument="Vocal 1"
			Pattern Name="Verse 3"
				Note Time="0" Value="A3" Duration="168" Release="156" Instrument="Vocal 1"
			Pattern Name="Verse 4"
				Note Time="72" Value="C3" Duration="12" Instrument="Vocal 1"
				Note Time="84" Value="C3" Duration="12" Instrument="Vocal 1"
			Pattern Name="Verse 5"
				Note Time="0" Value="G3" Duration="168" Release="156" Instrument="Vocal 1"
			Pattern Name="Verse 6"
				Note Time="72" Value="A#3" Duration="24" Instrument="Vocal 1"
			Pattern Name="Verse 7"
				Note Time="0" Value="A3" Duration="12" Instrument="Vocal 1"
				Note Time="12" Value="A3" Duration="12" Instrument="Vocal 1"
				Note Time="24" Value="F3" Duration="144" Release="132" Instrument="Vocal 1"
			Pattern Name="Verse 8"
				Note Time="72" Value="F3" Duration="12" Instrument="Vocal 1"
				Note Time="84" Value="G3" Duration="12" Instrument="Vocal 1"
			Pattern Name="Verse' 1"
				Note Time="0" Value="G#3" Duration="72" Instrument="Vocal 1"
				Note Time="72" Value="F3" Duration="12" Instrument="Vocal 1"
				Note Time="84" Value="D#3" Duration="12" Instrument="Vocal 1"
			Pattern Name="Verse' 2"
				Note Time="0" Value="D3" Duration="72" Release="60" Instrument="Vocal 1"
				Note Time="72" Value="D#3" Duration="12" Instrument="Vocal 1"
				Note Time="84" Value="F3" Duration="12" Instrument="Vocal 1"
			Pattern Name="Verse' 3"
				Note Time="0" Value="G3" Duration="72" Instrument="Vocal 1"
				Note Time="72" Value="D#3" Duration="12" Instrument="Vocal 1"
				Note Time="84" Value="D3" Duration="12" Instrument="Vocal 1"
			Pattern Name="Verse' 4"
				Note Time="0" Value="C3" Duration="72" Release="60" Instrument="Vocal 1"
				Note Time="72" Value="F3" Duration="12" Instrument="Vocal 1"
				Note Time="84" Value="G3" Duration="12" Instrument="Vocal 1"
			Pattern Name="Verse' 5"
				Note Time="0" Value="G#3" Duration="72" Instrument="Vocal 1"
				Note Time="72" Value="C4" Duration="24" Instrument="Vocal 1"
			Pattern Name="Verse' 6"
				Note Time="0" Value="B3" Duration="72" Release="60" Instrument="Vocal 1"
				Note Time="72" Value="G3" Duration="24" Instrument="Vocal 1"
			Pattern Name="Verse' 7"
				Note Time="0" Value="D#4" Duration="144" Instrument="Vocal 1"
			Pattern Name="Verse' 8"
				Note Time="48" Value="D#4" Duration="54" Release="48" Instrument="Vocal 1" Attack="False"
			Pattern Name="Verse' 9"
				Note Time="6" Value="D#4" Duration="18" Instrument="Vocal 1" SlideTarget="C#4" Attack="False"
				Note Time="48" Value="D#3" Duration="36" Instrument="Vocal 1"
				Note Time="84" Value="D#3" Duration="12" Instrument="Vocal 1"
			Pattern Name="Verse' 10"
				Note Time="0" Value="F3" Duration="48" Instrument="Vocal 1"
				Note Time="48" Value="D#3" Duration="48" Instrument="Vocal 1"
			Pattern Name="Verse' 11"
				Note Time="0" Value="G3" Duration="156" Release="132" Instrument="Vocal 1"
			Pattern Name="Verse' 12"
				Note Time="72" Value="E3" Duration="12" Instrument="Vocal 2"
				Note Time="84" Value="F3" Duration="12" Instrument="Vocal 2"
			Pattern Name="Bridge 1"
				Note Time="0" Value="G3" Duration="108" Release="96" Instrument="Vocal 2"
			Pattern Name="Bridge 2"
				Note Time="24" Value="G3" Duration="24" Instrument="Vocal 2"
				Note Time="48" Value="A3" Duration="24" Instrument="Vocal 2"
				Note Time="72" Value="B3" Duration="24" Instrument="Vocal 2"
			Pattern Name="Bridge 3"
				Note Time="0" Value="C4" Duration="72" Instrument="Vocal 2"
				Note Time="72" Value="B3" Duration="12" Instrument="Vocal 2"
				Note Time="84" Value="A3" Duration="12" Instrument="Vocal 2"
			Pattern Name="Bridge 4"
				Note Time="0" Value="G3" Duration="60" Release="48" Instrument="Vocal 2"
				Note Time="72" Value="A3" Duration="12" Instrument="Vocal 2"
				Note Time="84" Value="G3" Duration="12" Instrument="Vocal 2"
			Pattern Name="Bridge 5"
				Note Time="0" Value="F3" Duration="72" Instrument="Vocal 2"
				Note Time="72" Value="F3" Duration="12" Instrument="Vocal 2"
				Note Time="84" Value="E3" Duration="12" Instrument="Vocal 2"
			Pattern Name="Bridge 6"
				Note Time="0" Value="D3" Duration="60" Release="48" Instrument="Vocal 2"
				Note Time="72" Value="C3" Duration="12" Instrument="Vocal 2"
				Note Time="84" Value="D3" Duration="12" Instrument="Vocal 2"
			Pattern Name="Bridge 7"
				Note Time="0" Value="E3" Duration="72" Instrument="Vocal 2"
				Note Time="72" Value="F3" Duration="24" Instrument="Vocal 2"
			Pattern Name="Bridge 8"
				Note Time="0" Value="G3" Duration="60" Release="48" Instrument="Vocal 2"
				Note Time="72" Value="G3" Duration="24" Instrument="Vocal 1"
			Pattern Name="Chorus 1"
				Note Time="0" Value="C4" Duration="120" Release="102" Instrument="Vocal 1"
			Pattern Name="Chorus 2"
				Note Time="24" Value="A#3" Duration="24" Instrument="Vocal 1"
				Note Time="48" Value="F3" Duration="24" Instrument="Vocal 1"
				Note Time="72" Value="A#3" Duration="24" Instrument="Vocal 1"
			Pattern Name="Chorus 3"
				Note Time="0" Value="G3" Duration="168" Release="150" Instrument="Vocal 1"
			Pattern Name="Chorus 4"
				Note Time="72" Value="G#3" Duration="12" Instrument="Vocal 1"
				Note Time="84" Value="G3" Duration="12" Instrument="Vocal 1"
			Pattern Name="Chorus 5"
				Note Time="0" Value="F3" Duration="120" Release="102" Instrument="Vocal 1"
			Pattern Name="Chorus 6"
				Note Time="24" Value="D3" Duration="12" Release="6" Instrument="Vocal 1"
				Note Time="48" Value="G3" Duration="24" Instrument="Vocal 1"
				Note Time="72" Value="F3" Duration="24" Instrument="Vocal 1"
			Pattern Name="Chorus 7"
				Note Time="0" Value="D#3" Duration="72" Instrument="Vocal 1"
				Note Time="72" Value="D#3" Duration="12" Instrument="Vocal 1"
				Note Time="84" Value="F3" Duration="12" Instrument="Vocal 1"
			Pattern Name="Chorus 8"
				Note Time="0" Value="G3" Duration="72" Release="54" Instrument="Vocal 1"
				Note Time="72" Value="F3" Duration="12" Instrument="Vocal 1"
				Note Time="84" Value="G3" Duration="12" Instrument="Vocal 1"
			Pattern Name="Chorus 9"
				Note Time="0" Value="G#3" Duration="72" Instrument="Vocal 1"
				Note Time="72" Value="F3" Duration="12" Instrument="Vocal 1"
				Note Time="84" Value="D#3" Duration="12" Instrument="Vocal 1"
			Pattern Name="Chorus 10"
				Note Time="0" Value="D3" Duration="72" Release="54" Instrument="Vocal 1"
				Note Time="72" Value="G3" Duration="12" Instrument="Vocal 1"
				Note Time="84" Value="G#3" Duration="12" Instrument="Vocal 1"
			Pattern Name="Chorus 11"
				Note Time="0" Value="A#3" Duration="72" Instrument="Vocal 1"
				Note Time="72" Value="G3" Duration="12" Instrument="Vocal 1"
				Note Time="84" Value="F3" Duration="12" Instrument="Vocal 1"
			Pattern Name="Chorus 12"
				Note Time="0" Value="D#3" Duration="72" Release="54" Instrument="Vocal 1"
				Note Time="72" Value="D3" Duration="12" Instrument="Vocal 1"
				Note Time="84" Value="D#3" Duration="12" Instrument="Vocal 1"
			Pattern Name="Chorus 13"
				Note Time="0" Value="F3" Duration="60" Release="48" Instrument="Vocal 1"
				Note Time="60" Value="F3" Duration="24" Release="12" Instrument="Vocal 1"
				Note Time="84" Value="G#3" Duration="12" Instrument="Vocal 1"
			Pattern Name="Chorus 14"
				Note Time="0" Value="G3" Duration="168" Release="150" Instrument="Vocal 1"
			Pattern Name="Chorus 15"
				Note Time="84" Value="G3" Duration="6" Instrument="Vocal 1"
				Note Time="90" Value="G3" Duration="6" Instrument="Vocal 1"
			Pattern Name="Chorus 16"
				Note Time="0" Value="C4" Duration="12" Release="6" Instrument="Vocal 1"
				Note Time="12" Value="D#4" Duration="6" Instrument="Trumpet"
				Note Time="24" Value="D#4" Duration="6" Instrument="Trumpet"
				Note Time="36" Value="G3" Duration="6" Instrument="Vocal 1"
				Note Time="42" Value="G3" Duration="6" Instrument="Vocal 1"
				Note Time="48" Value="C4" Duration="12" Release="6" Instrument="Vocal 1"
				Note Time="60" Value="D#4" Duration="6" Instrument="Trumpet"
				Note Time="72" Value="D#4" Duration="6" Instrument="Trumpet"
				Note Time="84" Value="G3" Duration="6" Instrument="Vocal 1"
				Note Time="90" Value="G3" Duration="6" Instrument="Vocal 1"
			Pattern Name="Chorus 17"
				Note Time="0" Value="C4" Duration="36" Release="24" Instrument="Vocal 1"
				Note Time="36" Value="G4" Duration="42" Release="36" Instrument="Trumpet"
				Note Time="78" Value="F4" Duration="1" Instrument="Trumpet" Attack="False"
				Note Time="79" Value="D#4" Duration="1" Instrument="Trumpet" Attack="False"
				Note Time="80" Value="C#4" Duration="1" Instrument="Trumpet" Attack="False"
				Note Time="81" Value="B3" Duration="1" Instrument="Trumpet" Attack="False"
				Note Time="82" Value="A3" Duration="1" Instrument="Trumpet" Attack="False"
				Note Time="83" Value="G3" Duration="1" Instrument="Trumpet" Attack="False"
				Note Time="84" Value="G3" Duration="6" Instrument="Vocal 1"
				Note Time="90" Value="G3" Duration="6" Instrument="Vocal 1"
			Pattern Name="Chorus 18"
				Note Time="0" Value="A#3" Duration="12" Release="6" Instrument="Vocal 1"
				Note Time="12" Value="D#4" Duration="6" Instrument="Trumpet"
				Note Time="24" Value="D#4" Duration="6" Instrument="Trumpet"
				Note Time="36" Value="G3" Duration="6" Instrument="Vocal 1"
				Note Time="42" Value="G3" Duration="6" Instrument="Vocal 1"
				Note Time="48" Value="A#3" Duration="12" Release="6" Instrument="Vocal 1"
				Note Time="60" Value="D#4" Duration="6" Instrument="Trumpet"
				Note Time="72" Value="D#4" Duration="6" Instrument="Trumpet"
				Note Time="84" Value="G3" Duration="6" Instrument="Vocal 1"
				Note Time="90" Value="G3" Duration="6" Instrument="Vocal 1"
			Pattern Name="Chorus 19"
				Note Time="0" Value="A#3" Duration="12" Release="6" Instrument="Vocal 1"
				Note Time="24" Value="G4" Duration="18" Release="12" Instrument="Trumpet"
				Note Time="42" Value="F4" Duration="1" Instrument="Trumpet" Attack="False"
				Note Time="43" Value="D#4" Duration="1" Instrument="Trumpet" Attack="False"
				Note Time="44" Value="C#4" Duration="1" Instrument="Trumpet" Attack="False"
				Note Time="45" Value="B3" Duration="1" Instrument="Trumpet" Attack="False"
				Note Time="46" Value="A3" Duration="1" Instrument="Trumpet" Attack="False"
				Note Time="47" Value="G3" Duration="1" Instrument="Trumpet" Attack="False"
				Note Time="48" Value="G3" Duration="24" Instrument="Vocal 1"
				Note Time="72" Value="G3" Duration="24" Instrument="Vocal 1"
			Pattern Name="Chorus 20"
				Note Time="0" Value="C4" Duration="168" Release="144" Instrument="Vocal 1"
			Pattern Name="Chorus 21"
				Note Time="72" Value="C5" Duration="18" Release="12" Instrument="Trumpet"
				Note Time="90" Value="A#4" Duration="1" Instrument="Trumpet" Attack="False"
				Note Time="91" Value="G#4" Duration="1" Instrument="Trumpet" Attack="False"
				Note Time="92" Value="F#4" Duration="1" Instrument="Trumpet" Attack="False"
				Note Time="93" Value="E4" Duration="1" Instrument="Trumpet" Attack="False"
				Note Time="94" Value="D4" Duration="1" Instrument="Trumpet" Attack="False"
				Note Time="95" Value="C4" Duration="1" Instrument="Trumpet" Attack="False"
			PatternInstance Time="0" Pattern="Intro 1"
			PatternInstance Time="1" Pattern="Intro 2"
			PatternInstance Time="2" Pattern="Intro 3"
			PatternInstance Time="3" Pattern="Intro 4"
			PatternInstance Time="4" Pattern="Intro 5"
			PatternInstance Time="5" Pattern="Intro 6"
			PatternInstance Time="6" Pattern="Intro 7"
			PatternInstance Time="7" Pattern="Intro 8"
			PatternInstance Time="8" Pattern="Intro 9"
			PatternInstance Time="9" Pattern="Verse 1"
			PatternInstance Time="10" Pattern="Verse 2"
			PatternInstance Time="11" Pattern="Verse 3"
			PatternInstance Time="12" Pattern="Verse 4"
			PatternInstance Time="13" Pattern="Verse 5"
			PatternInstance Time="14" Pattern="Verse 6"
			PatternInstance Time="15" Pattern="Verse 7"
			PatternInstance Time="16" Pattern="Verse 8"
			PatternInstance Time="17" Pattern="Verse' 1"
			PatternInstance Time="18" Pattern="Verse' 2"
			PatternInstance Time="19" Pattern="Verse' 3"
			PatternInstance Time="20" Pattern="Verse' 4"
			PatternInstance Time="21" Pattern="Verse' 5"
			PatternInstance Time="22" Pattern="Verse' 6"
			PatternInstance Time="23" Pattern="Verse' 7"
			PatternInstance Time="24" Pattern="Verse' 8"
			PatternInstance Time="25" Pattern="Verse' 9"
			PatternInstance Time="26" Pattern="Verse' 10"
			PatternInstance Time="27" Pattern="Verse' 11"
			PatternInstance Time="28" Pattern="Verse' 12"
			PatternInstance Time="29" Pattern="Bridge 1"
			PatternInstance Time="30" Pattern="Bridge 2"
			PatternInstance Time="31" Pattern="Bridge 3"
			PatternInstance Time="32" Pattern="Bridge 4"
			PatternInstance Time="33" Pattern="Bridge 5"
			PatternInstance Time="34" Pattern="Bridge 6"
			PatternInstance Time="35" Pattern="Bridge 7"
			PatternInstance Time="36" Pattern="Bridge 8"
			PatternInstance Time="37" Pattern="Chorus 1"
			PatternInstance Time="38" Pattern="Chorus 2"
			PatternInstance Time="39" Pattern="Chorus 3"
			PatternInstance Time="40" Pattern="Chorus 4"
			PatternInstance Time="41" Pattern="Chorus 5"
			PatternInstance Time="42" Pattern="Chorus 6"
			PatternInstance Time="43" Pattern="Chorus 7"
			PatternInstance Time="44" Pattern="Chorus 8"
			PatternInstance Time="45" Pattern="Chorus 9"
			PatternInstance Time="46" Pattern="Chorus 10"
			PatternInstance Time="47" Pattern="Chorus 11"
			PatternInstance Time="48" Pattern="Chorus 12"
			PatternInstance Time="49" Pattern="Chorus 13"
			PatternInstance Time="50" Pattern="Chorus 14"
			PatternInstance Time="51" Pattern="Chorus 15"
			PatternInstance Time="52" Pattern="Chorus 16"
			PatternInstance Time="53" Pattern="Chorus 17"
			PatternInstance Time="54" Pattern="Chorus 18"
			PatternInstance Time="55" Pattern="Chorus 19"
			PatternInstance Time="56" Pattern="Chorus 20"
			PatternInstance Time="57" Pattern="Chorus 21"
		Channel Type="Square2"
			Pattern Name="Intro 1"
				Note Time="0" Value="C3" Duration="21" Release="14" Instrument="Intro"
				Note Time="21" Value="C3" Duration="7" Instrument="Intro"
				Note Time="28" Value="C3" Duration="14" Release="7" Instrument="Intro"
				Note Time="42" Value="G2" Duration="14" Release="7" Instrument="Intro"
				Note Time="56" Value="G2" Duration="14" Release="7" Instrument="Intro"
				Note Time="70" Value="G2" Duration="14" Release="7" Instrument="Intro"
			Pattern Name="Intro 2"
				Note Time="0" Value="E2" Duration="14" Release="7" Instrument="Intro"
				Note Time="14" Value="G2" Duration="14" Release="7" Instrument="Intro"
				Note Time="28" Value="C3" Duration="14" Release="7" Instrument="Intro"
				Note Time="42" Value="D3" Duration="14" Release="7" Instrument="Intro"
				Note Time="56" Value="C3" Duration="14" Release="7" Instrument="Intro"
				Note Time="70" Value="G2" Duration="14" Release="7" Instrument="Intro"
			Pattern Name="Intro 3"
				Note Time="0" Value="C3" Duration="14" Release="7" Instrument="Intro"
				Note Time="14" Value="D3" Duration="14" Release="7" Instrument="Intro"
				Note Time="28" Value="E3" Duration="14" Release="7" Instrument="Intro"
				Note Time="42" Value="F3" Duration="14" Release="7" Instrument="Intro"
				Note Time="56" Value="A3" Duration="14" Release="7" Instrument="Intro"
				Note Time="70" Value="F3" Duration="14" Release="7" Instrument="Intro"
			Pattern Name="Intro 4"
				Note Time="0" Value="E3" Duration="14" Release="7" Instrument="Intro"
				Note Time="14" Value="D3" Duration="14" Release="7" Instrument="Intro"
				Note Time="28" Value="C3" Duration="14" Release="7" Instrument="Intro"
			Pattern Name="Intro 5"
				Note Time="0" Value="G2" Duration="21" Release="14" Instrument="Intro"
				Note Time="21" Value="G2" Duration="7" Instrument="Intro"
				Note Time="28" Value="G2" Duration="14" Release="7" Instrument="Intro"
			Pattern Name="Intro 6"
				Note Time="0" Value="C3" Duration="24" Release="16" Instrument="Intro"
				Note Time="24" Value="C3" Duration="8" Instrument="Intro"
				Note Time="32" Value="C3" Duration="16" Release="8" Instrument="Intro"
			Pattern Name="Intro 7"
				Note Time="0" Value="C3" Duration="22" Release="11" Instrument="Intro"
				Note Time="22" Value="E2" Duration="22" Release="11" Instrument="Intro"
				Note Time="44" Value="C3" Duration="22" Release="11" Instrument="Intro"
			Pattern Name="Intro 8"
				Note Time="0" Value="G2" Duration="180" Release="108" Instrument="Intro"
			Pattern Name="Intro 9"
				Note Time="72" Value="G2" Duration="12" Instrument="Chorus 1"
				Note Time="84" Value="G2" Duration="12" Instrument="Chorus 1"
			Pattern Name="Verse 1"
				Note Time="0" Value="D#3" Duration="168" Release="156" Instrument="Chorus 1"
			Pattern Name="Verse 2"
				Note Time="72" Value="G3" Duration="24" Instrument="Chorus 1"
			Pattern Name="Verse 3"
				Note Time="0" Value="F3" Duration="168" Release="156" Instrument="Chorus 1"
			Pattern Name="Verse 4"
				Note Time="72" Value="G2" Duration="12" Instrument="Chorus 1"
				Note Time="84" Value="G2" Duration="12" Instrument="Chorus 1"
			Pattern Name="Verse 5"
				Note Time="0" Value="D#3" Duration="168" Release="156" Instrument="Chorus 1"
			Pattern Name="Verse 6"
				Note Time="72" Value="G3" Duration="24" Instrument="Chorus 1"
			Pattern Name="Verse 7"
				Note Time="0" Value="F3" Duration="12" Instrument="Chorus 1"
				Note Time="12" Value="F3" Duration="12" Instrument="Chorus 1"
				Note Time="24" Value="C3" Duration="144" Release="132" Instrument="Chorus 1"
			Pattern Name="Verse 8"
			Pattern Name="Verse' 1"
				Note Time="24" Value="C3" Duration="24" Instrument="Horn"
				Note Time="48" Value="D#3" Duration="18" Instrument="Horn"
				Note Time="66" Value="D3" Duration="18" Instrument="Horn"
				Note Time="84" Value="C3" Duration="12" Instrument="Horn"
			Pattern Name="Verse' 2"
				Note Time="0" Value="G#3" Duration="72" Release="60" Instrument="Horn"
			Pattern Name="Verse' 3"
				Note Time="24" Value="A#2" Duration="24" Instrument="Horn"
				Note Time="48" Value="D3" Duration="18" Instrument="Horn"
				Note Time="66" Value="C3" Duration="18" Instrument="Horn"
				Note Time="84" Value="A#2" Duration="12" Instrument="Horn"
			Pattern Name="Verse' 4"
				Note Time="0" Value="G3" Duration="72" Release="60" Instrument="Horn"
			Pattern Name="Verse' 5"
				Note Time="24" Value="G#2" Duration="24" Instrument="Horn"
				Note Time="48" Value="C3" Duration="24" Instrument="Horn"
				Note Time="72" Value="G#2" Duration="24" Instrument="Horn"
			Pattern Name="Verse' 6"
				Note Time="0" Value="D3" Duration="72" Release="60" Instrument="Horn"
			Pattern Name="Verse' 7"
				Note Time="21" Value="F4" Duration="3" Instrument="Trumpet"
				Note Time="24" Value="G4" Duration="18" Release="12" Instrument="Trumpet"
				Note Time="42" Value="F4" Duration="1" Instrument="Trumpet" Attack="False"
				Note Time="43" Value="D#4" Duration="1" Instrument="Trumpet" Attack="False"
				Note Time="44" Value="C#4" Duration="1" Instrument="Trumpet" Attack="False"
				Note Time="45" Value="B3" Duration="1" Instrument="Trumpet" Attack="False"
				Note Time="46" Value="A3" Duration="1" Instrument="Trumpet" Attack="False"
				Note Time="47" Value="G3" Duration="1" Instrument="Trumpet" Attack="False"
				Note Time="69" Value="F4" Duration="3" Instrument="Trumpet"
				Note Time="72" Value="G4" Duration="18" Release="12" Instrument="Trumpet"
				Note Time="90" Value="F4" Duration="1" Instrument="Trumpet" Attack="False"
				Note Time="91" Value="D#4" Duration="1" Instrument="Trumpet" Attack="False"
				Note Time="92" Value="C#4" Duration="1" Instrument="Trumpet" Attack="False"
				Note Time="93" Value="B3" Duration="1" Instrument="Trumpet" Attack="False"
				Note Time="94" Value="A3" Duration="1" Instrument="Trumpet" Attack="False"
				Note Time="95" Value="G3" Duration="1" Instrument="Trumpet" Attack="False"
			Pattern Name="Verse' 8"
				Note Time="21" Value="F4" Duration="3" Instrument="Trumpet"
				Note Time="24" Value="G4" Duration="18" Release="12" Instrument="Trumpet"
				Note Time="42" Value="F4" Duration="1" Instrument="Trumpet" Attack="False"
				Note Time="43" Value="D#4" Duration="1" Instrument="Trumpet" Attack="False"
				Note Time="44" Value="C#4" Duration="1" Instrument="Trumpet" Attack="False"
				Note Time="45" Value="B3" Duration="1" Instrument="Trumpet" Attack="False"
				Note Time="46" Value="A3" Duration="1" Instrument="Trumpet" Attack="False"
				Note Time="47" Value="G3" Duration="1" Instrument="Trumpet" Attack="False"
				Note Time="69" Value="F4" Duration="3" Instrument="Trumpet"
				Note Time="72" Value="G4" Duration="18" Release="12" Instrument="Trumpet"
				Note Time="90" Value="F4" Duration="1" Instrument="Trumpet" Attack="False"
				Note Time="91" Value="D#4" Duration="1" Instrument="Trumpet" Attack="False"
				Note Time="92" Value="C#4" Duration="1" Instrument="Trumpet" Attack="False"
				Note Time="93" Value="B3" Duration="1" Instrument="Trumpet" Attack="False"
				Note Time="94" Value="A3" Duration="1" Instrument="Trumpet" Attack="False"
				Note Time="95" Value="G3" Duration="1" Instrument="Trumpet" Attack="False"
			Pattern Name="Verse' 9"
				Note Time="48" Value="C3" Duration="36" Instrument="Strings"
				Note Time="84" Value="C3" Duration="12" Instrument="Strings"
			Pattern Name="Verse' 10"
				Note Time="0" Value="D3" Duration="48" Instrument="Strings"
				Note Time="48" Value="C3" Duration="48" Instrument="Strings"
			Pattern Name="Verse' 11"
				Note Time="0" Value="C3" Duration="12" Release="6" Instrument="Strings"
				Note Time="36" Value="C3" Duration="12" Release="6" Instrument="Strings"
				Note Time="72" Value="B2" Duration="84" Release="60" Instrument="Strings"
			Pattern Name="Verse' 12"
				Note Time="72" Value="C3" Duration="12" Instrument="Chorus 2"
				Note Time="84" Value="D3" Duration="12" Instrument="Chorus 2"
			Pattern Name="Bridge 1"
				Note Time="0" Value="E3" Duration="108" Release="96" Instrument="Chorus 2"
			Pattern Name="Bridge 2"
				Note Time="24" Value="E3" Duration="24" Instrument="Chorus 2"
				Note Time="48" Value="F3" Duration="24" Instrument="Chorus 2"
				Note Time="72" Value="G3" Duration="24" Instrument="Chorus 2"
			Pattern Name="Bridge 3"
				Note Time="0" Value="A3" Duration="72" Instrument="Chorus 2"
				Note Time="72" Value="G3" Duration="12" Instrument="Chorus 2"
				Note Time="84" Value="F3" Duration="12" Instrument="Chorus 2"
			Pattern Name="Bridge 4"
				Note Time="0" Value="E3" Duration="60" Release="48" Instrument="Chorus 2"
				Note Time="72" Value="F3" Duration="12" Instrument="Chorus 2"
				Note Time="84" Value="E3" Duration="12" Instrument="Chorus 2"
			Pattern Name="Bridge 5"
				Note Time="0" Value="D3" Duration="84" Instrument="Chorus 2"
				Note Time="84" Value="C3" Duration="12" Instrument="Chorus 2"
			Pattern Name="Bridge 6"
				Note Time="0" Value="B2" Duration="60" Release="48" Instrument="Chorus 2"
				Note Time="72" Value="A2" Duration="12" Instrument="Chorus 2"
				Note Time="84" Value="B2" Duration="12" Instrument="Chorus 2"
			Pattern Name="Bridge 7"
				Note Time="0" Value="C3" Duration="72" Instrument="Chorus 2"
				Note Time="72" Value="D3" Duration="24" Instrument="Chorus 2"
			Pattern Name="Bridge 8"
				Note Time="0" Value="A#2" Duration="60" Release="48" Instrument="Chorus 2"
			Pattern Name="Chorus 1"
				Note Time="0" Value="D#3" Duration="30" Release="18" Instrument="Strings"
				Note Time="36" Value="D#3" Duration="12" Release="6" Instrument="Strings"
				Note Time="48" Value="D#3" Duration="12" Release="6" Instrument="Strings"
				Note Time="60" Value="D#3" Duration="18" Release="6" Instrument="Strings"
				Note Time="84" Value="D#3" Duration="12" Release="6" Instrument="Strings"
			Pattern Name="Chorus 2"
				Note Time="0" Value="D3" Duration="18" Release="6" Instrument="Strings"
				Note Time="24" Value="D3" Duration="48" Release="30" Instrument="Strings"
			Pattern Name="Chorus 3"
				Note Time="0" Value="D3" Duration="30" Release="18" Instrument="Strings"
				Note Time="36" Value="D3" Duration="12" Release="6" Instrument="Strings"
				Note Time="48" Value="D3" Duration="12" Release="6" Instrument="Strings"
				Note Time="60" Value="D3" Duration="18" Release="6" Instrument="Strings"
				Note Time="84" Value="D3" Duration="12" Release="6" Instrument="Strings"
			Pattern Name="Chorus 4"
				Note Time="0" Value="C3" Duration="18" Release="6" Instrument="Strings"
				Note Time="24" Value="C3" Duration="48" Release="30" Instrument="Strings"
			Pattern Name="Chorus 5"
				Note Time="0" Value="C3" Duration="30" Release="18" Instrument="Strings"
				Note Time="36" Value="C3" Duration="12" Release="6" Instrument="Strings"
				Note Time="48" Value="C3" Duration="12" Release="6" Instrument="Strings"
				Note Time="60" Value="C3" Duration="18" Release="6" Instrument="Strings"
				Note Time="84" Value="C3" Duration="12" Release="6" Instrument="Strings"
			Pattern Name="Chorus 6"
				Note Time="0" Value="B2" Duration="18" Release="6" Instrument="Strings"
				Note Time="24" Value="B2" Duration="48" Release="30" Instrument="Strings"
			Pattern Name="Chorus 7"
				Note Time="0" Value="C3" Duration="30" Release="18" Instrument="Strings"
				Note Time="36" Value="C3" Duration="12" Release="6" Instrument="Strings"
				Note Time="48" Value="C3" Duration="12" Release="6" Instrument="Strings"
				Note Time="60" Value="C3" Duration="18" Release="6" Instrument="Strings"
				Note Time="84" Value="C3" Duration="12" Release="6" Instrument="Strings"
			Pattern Name="Chorus 8"
				Note Time="0" Value="E3" Duration="18" Release="6" Instrument="Strings"
				Note Time="24" Value="E3" Duration="48" Release="30" Instrument="Strings"
			Pattern Name="Chorus 9"
				Note Time="24" Value="C3" Duration="24" Instrument="Strings"
				Note Time="48" Value="F3" Duration="24" Instrument="Strings"
				Note Time="72" Value="G#3" Duration="24" Instrument="Strings"
			Pattern Name="Chorus 10"
				Note Time="0" Value="F3" Duration="72" Release="54" Instrument="Strings"
			Pattern Name="Chorus 11"
				Note Time="24" Value="G2" Duration="24" Instrument="Strings"
				Note Time="48" Value="A#2" Duration="24" Instrument="Strings"
				Note Time="72" Value="D#3" Duration="24" Instrument="Strings"
			Pattern Name="Chorus 12"
				Note Time="0" Value="C3" Duration="72" Release="54" Instrument="Strings"
			Pattern Name="Chorus 13"
				Note Time="36" Value="G#2" Duration="12" Instrument="Strings"
				Note Time="48" Value="C3" Duration="12" Instrument="Strings"
				Note Time="60" Value="D#3" Duration="12" Instrument="Strings"
				Note Time="72" Value="F3" Duration="12" Instrument="Strings"
				Note Time="84" Value="G#3" Duration="12" Instrument="Strings"
			Pattern Name="Chorus 14"
				Note Time="0" Value="C4" Duration="72" Release="54" Instrument="Strings"
				Note Time="72" Value="D3" Duration="6" Instrument="Strings"
				Note Time="78" Value="F3" Duration="6" Instrument="Strings"
				Note Time="84" Value="G#3" Duration="6" Instrument="Strings"
				Note Time="90" Value="C4" Duration="6" Instrument="Strings"
			Pattern Name="Chorus 15"
				Note Time="0" Value="B3" Duration="72" Release="54" Instrument="Strings"
				Note Time="84" Value="C3" Duration="6" Instrument="Chorus 1"
				Note Time="90" Value="C3" Duration="6" Instrument="Chorus 1"
			Pattern Name="Chorus 16"
				Note Time="0" Value="D#3" Duration="12" Release="6" Instrument="Chorus 1"
				Note Time="12" Value="G3" Duration="6" Instrument="Trumpet"
				Note Time="24" Value="G3" Duration="6" Instrument="Trumpet"
				Note Time="36" Value="C3" Duration="6" Instrument="Chorus 1"
				Note Time="42" Value="C3" Duration="6" Instrument="Chorus 1"
				Note Time="48" Value="D#3" Duration="12" Release="6" Instrument="Chorus 1"
				Note Time="60" Value="G3" Duration="6" Instrument="Trumpet"
				Note Time="72" Value="G3" Duration="6" Instrument="Trumpet"
				Note Time="84" Value="C3" Duration="6" Instrument="Chorus 1"
				Note Time="90" Value="C3" Duration="6" Instrument="Chorus 1"
			Pattern Name="Chorus 17"
				Note Time="0" Value="D#3" Duration="36" Release="24" Instrument="Chorus 1"
				Note Time="36" Value="D#4" Duration="42" Release="36" Instrument="Trumpet"
				Note Time="78" Value="C#4" Duration="1" Instrument="Trumpet" Attack="False"
				Note Time="79" Value="B3" Duration="1" Instrument="Trumpet" Attack="False"
				Note Time="80" Value="A3" Duration="1" Instrument="Trumpet" Attack="False"
				Note Time="81" Value="G3" Duration="1" Instrument="Trumpet" Attack="False"
				Note Time="82" Value="F3" Duration="1" Instrument="Trumpet" Attack="False"
				Note Time="83" Value="D#3" Duration="1" Instrument="Trumpet" Attack="False"
				Note Time="84" Value="A#2" Duration="6" Instrument="Chorus 1"
				Note Time="90" Value="A#2" Duration="6" Instrument="Chorus 1"
			Pattern Name="Chorus 18"
				Note Time="0" Value="D#3" Duration="12" Release="6" Instrument="Chorus 1"
				Note Time="12" Value="G3" Duration="6" Instrument="Trumpet"
				Note Time="24" Value="G3" Duration="6" Instrument="Trumpet"
				Note Time="36" Value="A#2" Duration="6" Instrument="Chorus 1"
				Note Time="42" Value="A#2" Duration="6" Instrument="Chorus 1"
				Note Time="48" Value="D#3" Duration="12" Release="6" Instrument="Chorus 1"
				Note Time="60" Value="G3" Duration="6" Instrument="Trumpet"
				Note Time="72" Value="G3" Duration="6" Instrument="Trumpet"
				Note Time="84" Value="A#2" Duration="6" Instrument="Chorus 1"
				Note Time="90" Value="A#2" Duration="6" Instrument="Chorus 1"
			Pattern Name="Chorus 19"
				Note Time="0" Value="D#3" Duration="12" Release="6" Instrument="Chorus 1"
				Note Time="24" Value="D#4" Duration="18" Release="12" Instrument="Trumpet"
				Note Time="42" Value="C#4" Duration="1" Instrument="Trumpet" Attack="False"
				Note Time="43" Value="B3" Duration="1" Instrument="Trumpet" Attack="False"
				Note Time="44" Value="A3" Duration="1" Instrument="Trumpet" Attack="False"
				Note Time="45" Value="G3" Duration="1" Instrument="Trumpet" Attack="False"
				Note Time="46" Value="F3" Duration="1" Instrument="Trumpet" Attack="False"
				Note Time="47" Value="D#3" Duration="1" Instrument="Trumpet" Attack="False"
				Note Time="48" Value="F3" Duration="24" Instrument="Chorus 1"
				Note Time="72" Value="F3" Duration="24" Instrument="Chorus 1"
			Pattern Name="Chorus 20"
				Note Time="0" Value="E3" Duration="96" Instrument="Chorus 1"
			Pattern Name="Chorus 21"
				Note Time="0" Value="D#3" Duration="72" Release="48" Instrument="Chorus 1"
				Note Time="72" Value="G4" Duration="18" Release="12" Instrument="Trumpet"
				Note Time="90" Value="F4" Duration="1" Instrument="Trumpet" Attack="False"
				Note Time="91" Value="D#4" Duration="1" Instrument="Trumpet" Attack="False"
				Note Time="92" Value="C#4" Duration="1" Instrument="Trumpet" Attack="False"
				Note Time="93" Value="B3" Duration="1" Instrument="Trumpet" Attack="False"
				Note Time="94" Value="A3" Duration="1" Instrument="Trumpet" Attack="False"
				Note Time="95" Value="G3" Duration="1" Instrument="Trumpet" Attack="False"
			PatternInstance Time="0" Pattern="Intro 1"
			PatternInstance Time="1" Pattern="Intro 2"
			PatternInstance Time="2" Pattern="Intro 3"
			PatternInstance Time="3" Pattern="Intro 4"
			PatternInstance Time="4" Pattern="Intro 5"
			PatternInstance Time="5" Pattern="Intro 6"
			PatternInstance Time="6" Pattern="Intro 7"
			PatternInstance Time="7" Pattern="Intro 8"
			PatternInstance Time="8" Pattern="Intro 9"
			PatternInstance Time="9" Pattern="Verse 1"
			PatternInstance Time="10" Pattern="Verse 2"
			PatternInstance Time="11" Pattern="Verse 3"
			PatternInstance Time="12" Pattern="Verse 4"
			PatternInstance Time="13" Pattern="Verse 5"
			PatternInstance Time="14" Pattern="Verse 6"
			PatternInstance Time="15" Pattern="Verse 7"
			PatternInstance Time="16" Pattern="Verse 8"
			PatternInstance Time="17" Pattern="Verse' 1"
			PatternInstance Time="18" Pattern="Verse' 2"
			PatternInstance Time="19" Pattern="Verse' 3"
			PatternInstance Time="20" Pattern="Verse' 4"
			PatternInstance Time="21" Pattern="Verse' 5"
			PatternInstance Time="22" Pattern="Verse' 6"
			PatternInstance Time="23" Pattern="Verse' 7"
			PatternInstance Time="24" Pattern="Verse' 8"
			PatternInstance Time="25" Pattern="Verse' 9"
			PatternInstance Time="26" Pattern="Verse' 10"
			PatternInstance Time="27" Pattern="Verse' 11"
			PatternInstance Time="28" Pattern="Verse' 12"
			PatternInstance Time="29" Pattern="Bridge 1"
			PatternInstance Time="30" Pattern="Bridge 2"
			PatternInstance Time="31" Pattern="Bridge 3"
			PatternInstance Time="32" Pattern="Bridge 4"
			PatternInstance Time="33" Pattern="Bridge 5"
			PatternInstance Time="34" Pattern="Bridge 6"
			PatternInstance Time="35" Pattern="Bridge 7"
			PatternInstance Time="36" Pattern="Bridge 8"
			PatternInstance Time="37" Pattern="Chorus 1"
			PatternInstance Time="38" Pattern="Chorus 2"
			PatternInstance Time="39" Pattern="Chorus 3"
			PatternInstance Time="40" Pattern="Chorus 4"
			PatternInstance Time="41" Pattern="Chorus 5"
			PatternInstance Time="42" Pattern="Chorus 6"
			PatternInstance Time="43" Pattern="Chorus 7"
			PatternInstance Time="44" Pattern="Chorus 8"
			PatternInstance Time="45" Pattern="Chorus 9"
			PatternInstance Time="46" Pattern="Chorus 10"
			PatternInstance Time="47" Pattern="Chorus 11"
			PatternInstance Time="48" Pattern="Chorus 12"
			PatternInstance Time="49" Pattern="Chorus 13"
			PatternInstance Time="50" Pattern="Chorus 14"
			PatternInstance Time="51" Pattern="Chorus 15"
			PatternInstance Time="52" Pattern="Chorus 16"
			PatternInstance Time="53" Pattern="Chorus 17"
			PatternInstance Time="54" Pattern="Chorus 18"
			PatternInstance Time="55" Pattern="Chorus 19"
			PatternInstance Time="56" Pattern="Chorus 20"
			PatternInstance Time="57" Pattern="Chorus 21"
		Channel Type="Triangle"
			Pattern Name="Intro 9"
				Note Time="0" Value="G2" Duration="96" Instrument="Base"
			Pattern Name="Verse 1"
				Note Time="0" Value="C3" Duration="48" Instrument="Base"
				Note Time="60" Value="C3" Duration="12" Instrument="Base"
				Note Time="84" Value="G2" Duration="12" Instrument="Base"
			Pattern Name="Verse 2"
				Note Time="12" Value="C3" Duration="12" Instrument="Base"
				Note Time="36" Value="D3" Duration="12" Instrument="Base"
				Note Time="60" Value="D#3" Duration="12" Instrument="Base"
				Note Time="84" Value="E3" Duration="12" Instrument="Base"
			Pattern Name="Verse 3"
				Note Time="0" Value="F3" Duration="48" Instrument="Base"
				Note Time="60" Value="F3" Duration="12" Instrument="Base"
				Note Time="84" Value="C3" Duration="12" Instrument="Base"
			Pattern Name="Verse 4"
				Note Time="12" Value="F3" Duration="12" Instrument="Base"
				Note Time="36" Value="D#3" Duration="12" Instrument="Base"
				Note Time="60" Value="D3" Duration="12" Instrument="Base"
				Note Time="84" Value="C#3" Duration="12" Instrument="Base"
			Pattern Name="Verse 5"
				Note Time="0" Value="C3" Duration="48" Instrument="Base"
				Note Time="60" Value="C3" Duration="12" Instrument="Base"
				Note Time="84" Value="G2" Duration="12" Instrument="Base"
			Pattern Name="Verse 6"
				Note Time="12" Value="C3" Duration="12" Instrument="Base"
				Note Time="36" Value="D3" Duration="12" Instrument="Base"
				Note Time="60" Value="D#3" Duration="12" Instrument="Base"
				Note Time="84" Value="E3" Duration="12" Instrument="Base"
			Pattern Name="Verse 7"
				Note Time="0" Value="F3" Duration="48" Instrument="Base"
				Note Time="60" Value="F3" Duration="12" Instrument="Base"
				Note Time="84" Value="C3" Duration="12" Instrument="Base"
			Pattern Name="Verse 8"
				Note Time="12" Value="F3" Duration="12" Instrument="Base"
				Note Time="36" Value="D#3" Duration="12" Instrument="Base"
				Note Time="60" Value="D3" Duration="12" Instrument="Base"
				Note Time="84" Value="C#3" Duration="12" Instrument="Base"
			Pattern Name="Verse' 1"
				Note Time="0" Value="F3" Duration="48" Instrument="Base"
				Note Time="60" Value="F3" Duration="12" Instrument="Base"
				Note Time="84" Value="C3" Duration="12" Instrument="Base"
			Pattern Name="Verse' 2"
				Note Time="12" Value="A#2" Duration="12" Instrument="Base"
				Note Time="36" Value="F2" Duration="12" Instrument="Base"
				Note Time="60" Value="A#2" Duration="12" Instrument="Base"
				Note Time="84" Value="D3" Duration="12" Instrument="Base"
			Pattern Name="Verse' 3"
				Note Time="0" Value="D#3" Duration="48" Instrument="Base"
				Note Time="60" Value="D#3" Duration="12" Instrument="Base"
				Note Time="84" Value="A#2" Duration="12" Instrument="Base"
			Pattern Name="Verse' 4"
				Note Time="12" Value="G#3" Duration="12" Instrument="Base"
				Note Time="36" Value="G3" Duration="12" Instrument="Base"
				Note Time="60" Value="F3" Duration="12" Instrument="Base"
				Note Time="84" Value="D#3" Duration="12" Instrument="Base"
			Pattern Name="Verse' 5"
				Note Time="0" Value="D3" Duration="48" Instrument="Base"
				Note Time="60" Value="D3" Duration="12" Instrument="Base"
				Note Time="84" Value="F3" Duration="12" Instrument="Base"
			Pattern Name="Verse' 6"
				Note Time="0" Value="G3" Duration="24" Instrument="Base"
				Note Time="36" Value="D3" Duration="11" Instrument="Base"
				Note Time="60" Value="B2" Duration="12" Instrument="Base"
				Note Time="84" Value="G2" Duration="12" Instrument="Base"
			Pattern Name="Verse' 7"
				Note Time="0" Value="C3" Duration="24" Instrument="Base"
				Note Time="36" Value="C3" Duration="12" Instrument="Base"
				Note Time="48" Value="B2" Duration="6" Instrument="Base"
				Note Time="60" Value="B2" Duration="12" Instrument="Base"
				Note Time="84" Value="B2" Duration="12" Instrument="Base"
			Pattern Name="Verse' 8"
				Note Time="0" Value="A#2" Duration="24" Instrument="Base"
				Note Time="36" Value="A#2" Duration="12" Instrument="Base"
				Note Time="48" Value="A2" Duration="6" Instrument="Base"
				Note Time="60" Value="A2" Duration="12" Instrument="Base"
				Note Time="84" Value="A2" Duration="12" Instrument="Base"
			Pattern Name="Verse' 9"
				Note Time="0" Value="G#2" Duration="72" Instrument="Base"
				Note Time="72" Value="D#3" Duration="12" Instrument="Base"
				Note Time="84" Value="D#3" Duration="12" Instrument="Base" SlideTarget="G3" Attack="False"
			Pattern Name="Verse' 10"
				Note Time="0" Value="G#3" Duration="78" Instrument="Base" Attack="False"
				Note Time="78" Value="G#3" Duration="18" Instrument="Base" SlideTarget="E3" Attack="False"
			Pattern Name="Verse' 11"
				Note Time="0" Value="D3" Duration="6" Instrument="Base"
				Note Time="6" Value="D3" Duration="6" Instrument="Base" Attack="False"
				Note Time="36" Value="D3" Duration="12" Instrument="Base"
				Note Time="72" Value="G2" Duration="84" Instrument="Base"
			Pattern Name="Verse' 12"
			Pattern Name="Bridge 1"
				Note Time="0" Value="C3" Duration="24" Instrument="Base"
				Note Time="36" Value="C3" Duration="6" Instrument="Base"
				Note Time="48" Value="C3" Duration="36" Instrument="Base"
			Pattern Name="Bridge 2"
				Note Time="0" Value="C3" Duration="24" Instrument="Base"
				Note Time="36" Value="C3" Duration="6" Instrument="Base"
				Note Time="48" Value="C3" Duration="36" Instrument="Base"
			Pattern Name="Bridge 3"
				Note Time="0" Value="F3" Duration="24" Instrument="Base"
				Note Time="36" Value="F3" Duration="6" Instrument="Base"
				Note Time="48" Value="F3" Duration="36" Instrument="Base"
			Pattern Name="Bridge 4"
				Note Time="0" Value="C3" Duration="24" Instrument="Base"
				Note Time="36" Value="C3" Duration="6" Instrument="Base"
				Note Time="48" Value="C3" Duration="36" Instrument="Base"
			Pattern Name="Bridge 5"
				Note Time="0" Value="G3" Duration="24" Instrument="Base"
				Note Time="36" Value="G3" Duration="6" Instrument="Base"
				Note Time="48" Value="G3" Duration="36" Instrument="Base"
			Pattern Name="Bridge 6"
				Note Time="0" Value="G2" Duration="24" Instrument="Base"
				Note Time="36" Value="G2" Duration="6" Instrument="Base"
				Note Time="48" Value="G2" Duration="36" Instrument="Base"
			Pattern Name="Bridge 7"
				Note Time="0" Value="C3" Duration="24" Instrument="Base"
				Note Time="36" Value="C3" Duration="6" Instrument="Base"
				Note Time="48" Value="C3" Duration="36" Instrument="Base"
			Pattern Name="Bridge 8"
				Note Time="0" Value="C3" Duration="24" Instrument="Base"
				Note Time="36" Value="C3" Duration="6" Instrument="Base"
				Note Time="48" Value="C3" Duration="36" Instrument="Base"
			Pattern Name="Chorus 1"
				Note Time="0" Value="F3" Duration="18" Instrument="Base"
				Note Time="24" Value="D#3" Duration="18" Instrument="Base"
				Note Time="48" Value="D3" Duration="18" Instrument="Base"
				Note Time="72" Value="C3" Duration="18" Instrument="Base"
			Pattern Name="Chorus 2"
				Note Time="0" Value="A#2" Duration="18" Instrument="Base"
				Note Time="24" Value="C3" Duration="18" Instrument="Base"
				Note Time="48" Value="D3" Duration="18" Instrument="Base"
				Note Time="72" Value="A#2" Duration="18" Instrument="Base"
			Pattern Name="Chorus 3"
				Note Time="0" Value="D#3" Duration="18" Instrument="Base"
				Note Time="24" Value="D3" Duration="18" Instrument="Base"
				Note Time="48" Value="C3" Duration="18" Instrument="Base"
				Note Time="72" Value="A#2" Duration="18" Instrument="Base"
			Pattern Name="Chorus 4"
				Note Time="0" Value="G#2" Duration="18" Instrument="Base"
				Note Time="24" Value="A#2" Duration="18" Instrument="Base"
				Note Time="48" Value="C3" Duration="18" Instrument="Base"
				Note Time="72" Value="G#2" Duration="18" Instrument="Base"
			Pattern Name="Chorus 5"
				Note Time="0" Value="D3" Duration="18" Instrument="Base"
				Note Time="24" Value="D#3" Duration="18" Instrument="Base"
				Note Time="48" Value="F3" Duration="18" Instrument="Base"
				Note Time="72" Value="D3" Duration="18" Instrument="Base"
			Pattern Name="Chorus 6"
				Note Time="0" Value="G3" Duration="18" Instrument="Base"
				Note Time="24" Value="G2" Duration="18" Instrument="Base"
				Note Time="48" Value="A2" Duration="18" Instrument="Base"
				Note Time="72" Value="B2" Duration="18" Instrument="Base"
			Pattern Name="Chorus 7"
				Note Time="0" Value="C3" Duration="18" Instrument="Base"
				Note Time="24" Value="D3" Duration="18" Instrument="Base"
				Note Time="48" Value="G3" Duration="18" Instrument="Base"
				Note Time="72" Value="D#3" Duration="18" Instrument="Base"
			Pattern Name="Chorus 8"
				Note Time="0" Value="C4" Duration="18" Instrument="Base"
				Note Time="24" Value="A#3" Duration="18" Instrument="Base"
				Note Time="48" Value="G3" Duration="18" Instrument="Base"
				Note Time="72" Value="C3" Duration="18" Instrument="Base"
			Pattern Name="Chorus 9"
				Note Time="0" Value="F3" Duration="18" Instrument="Base"
				Note Time="24" Value="D#3" Duration="18" Instrument="Base"
				Note Time="48" Value="D3" Duration="18" Instrument="Base"
				Note Time="72" Value="C3" Duration="18" Instrument="Base"
			Pattern Name="Chorus 10"
				Note Time="0" Value="A#2" Duration="18" Instrument="Base"
				Note Time="24" Value="C3" Duration="18" Instrument="Base"
				Note Time="48" Value="D3" Duration="18" Instrument="Base"
				Note Time="72" Value="A#2" Duration="18" Instrument="Base"
			Pattern Name="Chorus 11"
				Note Time="0" Value="D#3" Duration="18" Instrument="Base"
				Note Time="24" Value="D3" Duration="18" Instrument="Base"
				Note Time="48" Value="C3" Duration="18" Instrument="Base"
				Note Time="72" Value="A#2" Duration="18" Instrument="Base"
			Pattern Name="Chorus 12"
				Note Time="0" Value="G#2" Duration="18" Instrument="Base"
				Note Time="24" Value="A#2" Duration="18" Instrument="Base"
				Note Time="48" Value="C3" Duration="18" Instrument="Base"
				Note Time="72" Value="G#2" Duration="18" Instrument="Base"
			Pattern Name="Chorus 13"
				Note Time="0" Value="D3" Duration="18" Instrument="Base"
				Note Time="24" Value="D#3" Duration="18" Instrument="Base"
				Note Time="48" Value="F3" Duration="18" Instrument="Base"
				Note Time="72" Value="D3" Duration="18" Instrument="Base"
			Pattern Name="Chorus 14"
				Note Time="0" Value="G2" Duration="66" Instrument="Base"
				Note Time="72" Value="G3" Duration="96" Instrument="Base"
			Pattern Name="Chorus 15"
			Pattern Name="Chorus 16"
				Note Time="0" Value="C3" Duration="24" Instrument="Base"
				Note Time="36" Value="C3" Duration="6" Instrument="Base"
				Note Time="48" Value="C3" Duration="24" Instrument="Base"
				Note Time="84" Value="C3" Duration="6" Instrument="Base"
			Pattern Name="Chorus 17"
				Note Time="0" Value="C3" Duration="24" Instrument="Base"
				Note Time="36" Value="C3" Duration="6" Instrument="Base"
				Note Time="48" Value="C3" Duration="6" Instrument="Base"
				Note Time="60" Value="C3" Duration="18" Instrument="Base"
				Note Time="84" Value="C3" Duration="6" Instrument="Base"
			Pattern Name="Chorus 18"
				Note Time="0" Value="D#3" Duration="24" Instrument="Base"
				Note Time="36" Value="D#3" Duration="6" Instrument="Base"
				Note Time="48" Value="D#3" Duration="24" Instrument="Base"
				Note Time="84" Value="D#3" Duration="6" Instrument="Base"
			Pattern Name="Chorus 19"
				Note Time="0" Value="D#3" Duration="12" Instrument="Base"
				Note Time="48" Value="G2" Duration="48" Instrument="Base"
			Pattern Name="Chorus 20"
				Note Time="0" Value="C3" Duration="48" Instrument="Base"
				Note Time="60" Value="G3" Duration="12" Instrument="Base"
				Note Time="84" Value="C3" Duration="6" Instrument="Base"
			Pattern Name="Chorus 21"
				Note Time="0" Value="C3" Duration="12" Instrument="Base"
				Note Time="24" Value="G2" Duration="12" Instrument="Base"
				Note Time="48" Value="C3" Duration="12" Instrument="Base"
				Note Time="72" Value="C3" Duration="12" Instrument="Base"
			PatternInstance Time="8" Pattern="Intro 9"
			PatternInstance Time="9" Pattern="Verse 1"
			PatternInstance Time="10" Pattern="Verse 2"
			PatternInstance Time="11" Pattern="Verse 3"
			PatternInstance Time="12" Pattern="Verse 4"
			PatternInstance Time="13" Pattern="Verse 5"
			PatternInstance Time="14" Pattern="Verse 6"
			PatternInstance Time="15" Pattern="Verse 7"
			PatternInstance Time="16" Pattern="Verse 8"
			PatternInstance Time="17" Pattern="Verse' 1"
			PatternInstance Time="18" Pattern="Verse' 2"
			PatternInstance Time="19" Pattern="Verse' 3"
			PatternInstance Time="20" Pattern="Verse' 4"
			PatternInstance Time="21" Pattern="Verse' 5"
			PatternInstance Time="22" Pattern="Verse' 6"
			PatternInstance Time="23" Pattern="Verse' 7"
			PatternInstance Time="24" Pattern="Verse' 8"
			PatternInstance Time="25" Pattern="Verse' 9"
			PatternInstance Time="26" Pattern="Verse' 10"
			PatternInstance Time="27" Pattern="Verse' 11"
			PatternInstance Time="28" Pattern="Verse' 12"
			PatternInstance Time="29" Pattern="Bridge 1"
			PatternInstance Time="30" Pattern="Bridge 2"
			PatternInstance Time="31" Pattern="Bridge 3"
			PatternInstance Time="32" Pattern="Bridge 4"
			PatternInstance Time="33" Pattern="Bridge 5"
			PatternInstance Time="34" Pattern="Bridge 6"
			PatternInstance Time="35" Pattern="Bridge 7"
			PatternInstance Time="36" Pattern="Bridge 8"
			PatternInstance Time="37" Pattern="Chorus 1"
			PatternInstance Time="38" Pattern="Chorus 2"
			PatternInstance Time="39" Pattern="Chorus 3"
			PatternInstance Time="40" Pattern="Chorus 4"
			PatternInstance Time="41" Pattern="Chorus 5"
			PatternInstance Time="42" Pattern="Chorus 6"
			PatternInstance Time="43" Pattern="Chorus 7"
			PatternInstance Time="44" Pattern="Chorus 8"
			PatternInstance Time="45" Pattern="Chorus 9"
			PatternInstance Time="46" Pattern="Chorus 10"
			PatternInstance Time="47" Pattern="Chorus 11"
			PatternInstance Time="48" Pattern="Chorus 12"
			PatternInstance Time="49" Pattern="Chorus 13"
			PatternInstance Time="50" Pattern="Chorus 14"
			PatternInstance Time="51" Pattern="Chorus 15"
			PatternInstance Time="52" Pattern="Chorus 16"
			PatternInstance Time="53" Pattern="Chorus 17"
			PatternInstance Time="54" Pattern="Chorus 18"
			PatternInstance Time="55" Pattern="Chorus 19"
			PatternInstance Time="56" Pattern="Chorus 20"
			PatternInstance Time="57" Pattern="Chorus 21"
		Channel Type="Noise"
		Channel Type="DPCM"
			Pattern Name="Intro 9"
				Note Time="0" Value="C2" Duration="6"
				Note Time="48" Value="D2" Duration="6"
				Note Time="60" Value="D2" Duration="6"
				Note Time="72" Value="D2" Duration="6"
				Note Time="84" Value="D2" Duration="6"
			Pattern Name="Verse 1"
				Note Time="0" Value="C2" Duration="6"
				Note Time="24" Value="D2" Duration="6"
				Note Time="48" Value="C2" Duration="6"
				Note Time="72" Value="D2" Duration="6"
			Pattern Name="Verse 2"
				Note Time="0" Value="C2" Duration="6"
				Note Time="24" Value="D2" Duration="6"
				Note Time="48" Value="C2" Duration="6"
				Note Time="72" Value="D2" Duration="6"
			Pattern Name="Verse 3"
				Note Time="0" Value="C2" Duration="6"
				Note Time="24" Value="D2" Duration="6"
				Note Time="48" Value="C2" Duration="6"
				Note Time="72" Value="D2" Duration="6"
			Pattern Name="Verse 4"
				Note Time="0" Value="C2" Duration="6"
				Note Time="24" Value="D2" Duration="6"
				Note Time="48" Value="C2" Duration="6"
				Note Time="72" Value="D2" Duration="6"
			Pattern Name="Verse 5"
				Note Time="0" Value="C2" Duration="6"
				Note Time="24" Value="D2" Duration="6"
				Note Time="48" Value="C2" Duration="6"
				Note Time="72" Value="D2" Duration="6"
			Pattern Name="Verse 6"
				Note Time="0" Value="C2" Duration="6"
				Note Time="24" Value="D2" Duration="6"
				Note Time="48" Value="C2" Duration="6"
				Note Time="72" Value="D2" Duration="6"
			Pattern Name="Verse 7"
				Note Time="0" Value="C2" Duration="6"
				Note Time="24" Value="D2" Duration="6"
				Note Time="48" Value="C2" Duration="6"
				Note Time="72" Value="D2" Duration="6"
			Pattern Name="Verse 8"
				Note Time="0" Value="C2" Duration="6"
				Note Time="24" Value="D2" Duration="6"
				Note Time="48" Value="C2" Duration="6"
				Note Time="72" Value="D2" Duration="6"
			Pattern Name="Verse' 1"
				Note Time="0" Value="C2" Duration="6"
				Note Time="24" Value="D2" Duration="6"
				Note Time="48" Value="C2" Duration="6"
				Note Time="72" Value="D2" Duration="6"
			Pattern Name="Verse' 2"
				Note Time="0" Value="C2" Duration="6"
				Note Time="24" Value="D2" Duration="6"
				Note Time="48" Value="C2" Duration="6"
				Note Time="72" Value="D2" Duration="6"
			Pattern Name="Verse' 3"
				Note Time="0" Value="C2" Duration="6"
				Note Time="24" Value="D2" Duration="6"
				Note Time="48" Value="C2" Duration="6"
				Note Time="72" Value="D2" Duration="6"
			Pattern Name="Verse' 4"
				Note Time="0" Value="C2" Duration="6"
				Note Time="24" Value="D2" Duration="6"
				Note Time="48" Value="C2" Duration="6"
				Note Time="72" Value="D2" Duration="6"
			Pattern Name="Verse' 5"
				Note Time="0" Value="C2" Duration="6"
				Note Time="24" Value="D2" Duration="6"
				Note Time="48" Value="C2" Duration="6"
				Note Time="72" Value="D2" Duration="6"
			Pattern Name="Verse' 6"
				Note Time="0" Value="C2" Duration="6"
				Note Time="24" Value="D2" Duration="6"
				Note Time="48" Value="C2" Duration="6"
				Note Time="72" Value="D2" Duration="6"
			Pattern Name="Verse' 7"
				Note Time="0" Value="D2" Duration="6"
				Note Time="24" Value="C2" Duration="6"
				Note Time="48" Value="C2" Duration="6"
				Note Time="60" Value="D2" Duration="6"
				Note Time="84" Value="C2" Duration="6"
			Pattern Name="Verse' 8"
				Note Time="0" Value="D2" Duration="6"
				Note Time="24" Value="C2" Duration="6"
				Note Time="48" Value="C2" Duration="6"
				Note Time="60" Value="D2" Duration="6"
				Note Time="84" Value="D2" Duration="6"
			Pattern Name="Verse' 9"
				Note Time="0" Value="C2" Duration="6"
				Note Time="24" Value="C2" Duration="6"
				Note Time="48" Value="C2" Duration="6"
				Note Time="72" Value="C2" Duration="6"
			Pattern Name="Verse' 10"
				Note Time="0" Value="C2" Duration="6"
				Note Time="24" Value="C2" Duration="6"
				Note Time="48" Value="C2" Duration="6"
				Note Time="72" Value="C2" Duration="6"
			Pattern Name="Verse' 11"
				Note Time="0" Value="D2" Duration="6"
				Note Time="24" Value="C2" Duration="6"
				Note Time="36" Value="D2" Duration="6"
				Note Time="48" Value="C2" Duration="6"
				Note Time="72" Value="C2" Duration="6"
			Pattern Name="Verse' 12"
				Note Time="0" Value="C2" Duration="6"
				Note Time="24" Value="C2" Duration="6"
				Note Time="48" Value="C2" Duration="6"
			Pattern Name="Bridge 1"
				Note Time="0" Value="C2" Duration="6"
				Note Time="36" Value="C2" Duration="6"
				Note Time="48" Value="C2" Duration="6"
			Pattern Name="Bridge 2"
				Note Time="0" Value="C2" Duration="6"
				Note Time="36" Value="C2" Duration="6"
				Note Time="48" Value="C2" Duration="6"
			Pattern Name="Bridge 3"
				Note Time="0" Value="C2" Duration="6"
				Note Time="36" Value="C2" Duration="6"
				Note Time="48" Value="C2" Duration="6"
			Pattern Name="Bridge 4"
				Note Time="0" Value="C2" Duration="6"
				Note Time="36" Value="C2" Duration="6"
				Note Time="48" Value="C2" Duration="6"
			Pattern Name="Bridge 5"
				Note Time="0" Value="C2" Duration="6"
				Note Time="36" Value="C2" Duration="6"
				Note Time="48" Value="C2" Duration="6"
			Pattern Name="Bridge 6"
				Note Time="0" Value="C2" Duration="6"
				Note Time="36" Value="C2" Duration="6"
				Note Time="48" Value="C2" Duration="6"
			Pattern Name="Bridge 7"
				Note Time="0" Value="C2" Duration="6"
				Note Time="36" Value="C2" Duration="6"
				Note Time="48" Value="C2" Duration="6"
			Pattern Name="Bridge 8"
				Note Time="0" Value="C2" Duration="6"
				Note Time="36" Value="C2" Duration="6"
				Note Time="48" Value="C2" Duration="6"
				Note Time="72" Value="D2" Duration="6"
			Pattern Name="Chorus 1"
				Note Time="0" Value="C2" Duration="6"
				Note Time="24" Value="D2" Duration="6"
				Note Time="48" Value="C2" Duration="6"
				Note Time="72" Value="D2" Duration="6"
			Pattern Name="Chorus 2"
				Note Time="0" Value="C2" Duration="6"
				Note Time="24" Value="D2" Duration="6"
				Note Time="48" Value="C2" Duration="6"
				Note Time="72" Value="D2" Duration="6"
			Pattern Name="Chorus 3"
				Note Time="0" Value="C2" Duration="6"
				Note Time="24" Value="D2" Duration="6"
				Note Time="48" Value="C2" Duration="6"
				Note Time="72" Value="D2" Duration="6"
			Pattern Name="Chorus 4"
				Note Time="0" Value="C2" Duration="6"
				Note Time="24" Value="D2" Duration="6"
				Note Time="48" Value="C2" Duration="6"
				Note Time="72" Value="D2" Duration="6"
			Pattern Name="Chorus 5"
				Note Time="0" Value="C2" Duration="6"
				Note Time="24" Value="D2" Duration="6"
				Note Time="48" Value="C2" Duration="6"
				Note Time="72" Value="D2" Duration="6"
			Pattern Name="Chorus 6"
				Note Time="0" Value="C2" Duration="6"
				Note Time="24" Value="D2" Duration="6"
				Note Time="48" Value="C2" Duration="6"
				Note Time="72" Value="D2" Duration="6"
			Pattern Name="Chorus 7"
				Note Time="0" Value="C2" Duration="6"
				Note Time="24" Value="D2" Duration="6"
				Note Time="48" Value="C2" Duration="6"
				Note Time="72" Value="D2" Duration="6"
			Pattern Name="Chorus 8"
				Note Time="0" Value="C2" Duration="6"
				Note Time="24" Value="D2" Duration="6"
				Note Time="48" Value="C2" Duration="6"
				Note Time="72" Value="D2" Duration="6"
			Pattern Name="Chorus 9"
				Note Time="0" Value="C2" Duration="6"
				Note Time="24" Value="D2" Duration="6"
				Note Time="48" Value="C2" Duration="6"
				Note Time="72" Value="D2" Duration="6"
			Pattern Name="Chorus 10"
				Note Time="0" Value="C2" Duration="6"
				Note Time="24" Value="D2" Duration="6"
				Note Time="48" Value="C2" Duration="6"
				Note Time="72" Value="D2" Duration="6"
			Pattern Name="Chorus 11"
				Note Time="0" Value="C2" Duration="6"
				Note Time="24" Value="D2" Duration="6"
				Note Time="48" Value="C2" Duration="6"
				Note Time="72" Value="D2" Duration="6"
			Pattern Name="Chorus 12"
				Note Time="0" Value="C2" Duration="6"
				Note Time="24" Value="D2" Duration="6"
				Note Time="48" Value="C2" Duration="6"
				Note Time="72" Value="D2" Duration="6"
			Pattern Name="Chorus 13"
				Note Time="0" Value="C2" Duration="6"
				Note Time="24" Value="D2" Duration="6"
				Note Time="48" Value="C2" Duration="6"
				Note Time="72" Value="D2" Duration="6"
			Pattern Name="Chorus 14"
				Note Time="0" Value="C2" Duration="6"
				Note Time="12" Value="D2" Duration="6"
				Note Time="18" Value="D2" Duration="6"
				Note Time="30" Value="D2" Duration="6"
				Note Time="36" Value="D2" Duration="6"
				Note Time="48" Value="D2" Duration="6"
				Note Time="54" Value="D2" Duration="6"
				Note Time="66" Value="D2" Duration="6"
				Note Time="72" Value="D2" Duration="6"
				Note Time="84" Value="D2" Duration="6"
			Pattern Name="Chorus 15"
				Note Time="0" Value="C2" Duration="6"
				Note Time="12" Value="D2" Duration="6"
				Note Time="24" Value="D2" Duration="6"
				Note Time="36" Value="D2" Duration="6"
				Note Time="48" Value="D2" Duration="6"
				Note Time="54" Value="D2" Duration="6"
				Note Time="60" Value="C2" Duration="6"
				Note Time="72" Value="D2" Duration="6"
			Pattern Name="Chorus 16"
				Note Time="0" Value="C2" Duration="6"
				Note Time="24" Value="D2" Duration="6"
				Note Time="36" Value="C2" Duration="6"
				Note Time="48" Value="C2" Duration="6"
				Note Time="72" Value="D2" Duration="6"
				Note Time="84" Value="C2" Duration="6"
			Pattern Name="Chorus 17"
				Note Time="0" Value="C2" Duration="6"
				Note Time="24" Value="D2" Duration="6"
				Note Time="36" Value="C2" Duration="6"
				Note Time="48" Value="C2" Duration="6"
				Note Time="60" Value="C2" Duration="6"
				Note Time="72" Value="D2" Duration="6"
			Pattern Name="Chorus 18"
				Note Time="0" Value="C2" Duration="6"
				Note Time="24" Value="D2" Duration="6"
				Note Time="36" Value="C2" Duration="6"
				Note Time="48" Value="C2" Duration="6"
				Note Time="72" Value="D2" Duration="6"
				Note Time="84" Value="C2" Duration="6"
			Pattern Name="Chorus 19"
				Note Time="0" Value="C2" Duration="6"
				Note Time="24" Value="C2" Duration="6"
				Note Time="48" Value="D2" Duration="6"
				Note Time="60" Value="D2" Duration="6"
				Note Time="72" Value="D2" Duration="6"
				Note Time="84" Value="D2" Duration="6"
			Pattern Name="Chorus 20"
				Note Time="0" Value="C2" Duration="6"
				Note Time="24" Value="D2" Duration="6"
				Note Time="48" Value="C2" Duration="6"
				Note Time="72" Value="D2" Duration="6"
			Pattern Name="Chorus 21"
				Note Time="0" Value="D2" Duration="6"
				Note Time="48" Value="D2" Duration="6"
				Note Time="72" Value="D2" Duration="6"
			PatternInstance Time="8" Pattern="Intro 9"
			PatternInstance Time="9" Pattern="Verse 1"
			PatternInstance Time="10" Pattern="Verse 2"
			PatternInstance Time="11" Pattern="Verse 3"
			PatternInstance Time="12" Pattern="Verse 4"
			PatternInstance Time="13" Pattern="Verse 5"
			PatternInstance Time="14" Pattern="Verse 6"
			PatternInstance Time="15" Pattern="Verse 7"
			PatternInstance Time="16" Pattern="Verse 8"
			PatternInstance Time="17" Pattern="Verse' 1"
			PatternInstance Time="18" Pattern="Verse' 2"
			PatternInstance Time="19" Pattern="Verse' 3"
			PatternInstance Time="20" Pattern="Verse' 4"
			PatternInstance Time="21" Pattern="Verse' 5"
			PatternInstance Time="22" Pattern="Verse' 6"
			PatternInstance Time="23" Pattern="Verse' 7"
			PatternInstance Time="24" Pattern="Verse' 8"
			PatternInstance Time="25" Pattern="Verse' 9"
			PatternInstance Time="26" Pattern="Verse' 10"
			PatternInstance Time="27" Pattern="Verse' 11"
			PatternInstance Time="28" Pattern="Verse' 12"
			PatternInstance Time="29" Pattern="Bridge 1"
			PatternInstance Time="30" Pattern="Bridge 2"
			PatternInstance Time="31" Pattern="Bridge 3"
			PatternInstance Time="32" Pattern="Bridge 4"
			PatternInstance Time="33" Pattern="Bridge 5"
			PatternInstance Time="34" Pattern="Bridge 6"
			PatternInstance Time="35" Pattern="Bridge 7"
			PatternInstance Time="36" Pattern="Bridge 8"
			PatternInstance Time="37" Pattern="Chorus 1"
			PatternInstance Time="38" Pattern="Chorus 2"
			PatternInstance Time="39" Pattern="Chorus 3"
			PatternInstance Time="40" Pattern="Chorus 4"
			PatternInstance Time="41" Pattern="Chorus 5"
			PatternInstance Time="42" Pattern="Chorus 6"
			PatternInstance Time="43" Pattern="Chorus 7"
			PatternInstance Time="44" Pattern="Chorus 8"
			PatternInstance Time="45" Pattern="Chorus 9"
			PatternInstance Time="46" Pattern="Chorus 10"
			PatternInstance Time="47" Pattern="Chorus 11"
			PatternInstance Time="48" Pattern="Chorus 12"
			PatternInstance Time="49" Pattern="Chorus 13"
			PatternInstance Time="50" Pattern="Chorus 14"
			PatternInstance Time="51" Pattern="Chorus 15"
			PatternInstance Time="52" Pattern="Chorus 16"
			PatternInstance Time="53" Pattern="Chorus 17"
			PatternInstance Time="54" Pattern="Chorus 18"
			PatternInstance Time="55" Pattern="Chorus 19"
			PatternInstance Time="56" Pattern="Chorus 20"
			PatternInstance Time="57" Pattern="Chorus 21"
